<svg xmlns="http://www.w3.org/2000/svg" xml:space="preserve" baseProfile="tiny" version="1.2" viewBox="0 0 256 256">
  <path d="m256 229.484-81.427-81.427c9.903-14.981 15.679-32.917 15.679-52.181C190.253 43.562 147.691 1 95.376 1S.5 43.562.5 95.876s42.562 94.876 94.876 94.876c19.521 0 37.683-5.929 52.783-16.077L229.484 256 256 229.484zM20.5 95.876C20.5 54.589 54.089 21 95.376 21c41.287 0 74.876 33.589 74.876 74.876 0 41.287-33.59 74.876-74.876 74.876-41.287.001-74.876-33.589-74.876-74.876z"/>
</svg>
